<?xml version="1.0" encoding="utf-8"?>
<!-- Generator: Adobe Illustrator 16.0.0, SVG Export Plug-In . SVG Version: 6.00 Build 0)  -->
<!DOCTYPE svg PUBLIC "-//W3C//DTD SVG 1.1//EN" "http://www.w3.org/Graphics/SVG/1.1/DTD/svg11.dtd">
<svg version="1.1" xmlns="http://www.w3.org/2000/svg" xmlns:xlink="http://www.w3.org/1999/xlink" x="0px" y="0px" width="1000px"
	 height="1000px" viewBox="0 0 1000 1000" enable-background="new 0 0 1000 1000" xml:space="preserve">
<g id="Layer_1">
	<g>
		<path d="M15.019,833.696V728.042h28.53v105.654H15.019z"/>
		<path d="M177.268,833.696v-59.21c0-3.944-0.335-7.521-1-10.726c-0.666-3.202-1.908-5.945-3.727-8.227
			c-1.822-2.283-4.36-4.05-7.615-5.308c-3.255-1.253-7.445-1.883-12.572-1.883c-3.897,0-7.985,0.527-12.264,1.575
			c-4.282,1.053-8.523,2.449-12.727,4.193c-4.202,1.741-8.215,3.765-12.035,6.072c-3.819,2.307-7.214,4.72-10.186,7.229v66.283
			h-28.53V728.042h28.53v14.456c3.586-2.048,7.405-4.085,11.455-6.113c4.049-2.023,8.355-3.854,12.918-5.496
			c4.563-1.641,9.406-2.972,14.534-4c5.127-1.023,10.536-1.537,16.224-1.537c7.125,0,13.498,0.86,19.108,2.577
			c5.615,1.717,10.369,4.15,14.266,7.305c3.894,3.153,6.883,6.973,8.958,11.458s3.114,9.496,3.114,15.031v71.974H177.268z"/>
		<path d="M375.04,780.946c0,9.075-1.667,17.083-4.999,24.029c-3.333,6.949-8.098,12.755-14.3,17.419
			c-6.206,4.665-13.728,8.188-22.57,10.571c-8.843,2.386-18.774,3.578-29.796,3.578c-11.022,0-20.981-1.192-29.874-3.578
			c-8.896-2.383-16.469-5.906-22.722-10.571c-6.256-4.664-11.073-10.47-14.456-17.419c-3.383-6.946-5.077-14.954-5.077-24.029
			c0-9.072,1.693-17.081,5.077-24.027s8.2-12.754,14.456-17.418c6.253-4.665,13.826-8.189,22.722-10.574
			c8.893-2.383,18.852-3.575,29.874-3.575c11.022,0,20.954,1.192,29.796,3.575c8.842,2.385,16.364,5.909,22.57,10.574
			c6.202,4.664,10.968,10.472,14.3,17.418S375.04,771.874,375.04,780.946z M346.206,780.946c0-3.945-0.63-7.881-1.884-11.802
			c-1.258-3.921-3.488-7.447-6.69-10.574c-3.207-3.126-7.576-5.664-13.112-7.612c-5.536-1.947-12.583-2.923-21.145-2.923
			c-5.742,0-10.792,0.451-15.148,1.347c-4.357,0.898-8.126,2.142-11.303,3.729c-3.18,1.589-5.844,3.449-7.997,5.575
			c-2.154,2.126-3.874,4.409-5.151,6.845c-1.284,2.434-2.192,4.972-2.733,7.611c-0.538,2.641-0.806,5.241-0.806,7.804
			c0,2.616,0.269,5.256,0.806,7.922c0.541,2.664,1.449,5.217,2.733,7.651c1.278,2.433,2.998,4.702,5.151,6.806
			c2.153,2.103,4.816,3.932,7.997,5.497c3.177,1.564,6.946,2.795,11.303,3.69c4.356,0.896,9.406,1.345,15.148,1.345
			c8.562,0,15.609-0.971,21.145-2.921c5.537-1.947,9.906-4.485,13.112-7.611c3.202-3.128,5.432-6.654,6.69-10.575
			C345.576,788.83,346.206,784.897,346.206,780.946z"/>
		<path d="M501.38,833.696c-0.513-5.738-1.896-10.777-4.15-15.108c-2.258-4.332-5.089-8.061-8.498-11.19
			c-3.411-3.123-7.254-5.712-11.532-7.765c-4.283-2.052-8.679-3.678-13.188-4.882c-4.512-1.207-9.013-2.052-13.498-2.537
			c-4.484-0.488-8.648-0.733-12.494-0.733h-8.456v42.216h-28.531V728.042h28.531v40.756h5.844c3.943,0,8.071-0.307,12.377-0.923
			c4.307-0.614,8.574-1.588,12.806-2.923c4.229-1.332,8.289-3.05,12.187-5.152c3.896-2.102,7.382-4.663,10.458-7.688
			c3.074-3.025,5.637-6.521,7.688-10.496c2.051-3.972,3.332-8.496,3.846-13.573h29.065c-0.514,5.591-1.627,10.64-3.345,15.149
			c-1.717,4.513-3.843,8.55-6.382,12.111c-2.538,3.563-5.372,6.678-8.498,9.342c-3.126,2.667-6.331,4.96-9.609,6.883
			c-3.282,1.923-6.553,3.512-9.805,4.769c-3.258,1.255-6.294,2.216-9.113,2.882c3.59,0.564,7.316,1.449,11.189,2.655
			c3.869,1.203,7.701,2.791,11.494,4.766c3.794,1.975,7.42,4.396,10.881,7.265c3.461,2.873,6.575,6.229,9.345,10.076
			c2.768,3.843,5.073,8.229,6.918,13.147c1.847,4.922,3.026,10.458,3.539,16.609H501.38z"/>
		<path d="M582.963,728.042v59.519c0,3.948,0.335,7.521,1.001,10.726s1.896,5.949,3.691,8.228c1.795,2.281,4.306,4.053,7.533,5.306
			c3.231,1.259,7.434,1.885,12.612,1.885c3.896,0,7.984-0.538,12.264-1.616c4.282-1.073,8.522-2.511,12.728-4.306
			c4.204-1.791,8.215-3.855,12.033-6.189c3.819-2.332,7.242-4.754,10.267-7.266v-66.285h28.45v105.654h-28.45v-14.455
			c-3.589,2.052-7.408,4.114-11.458,6.19c-4.049,2.076-8.355,3.947-12.918,5.613c-4.562,1.667-9.406,3.022-14.533,4.073
			c-5.128,1.052-10.536,1.577-16.225,1.577c-7.125,0-13.51-0.856-19.147-2.574c-5.641-1.718-10.406-4.154-14.301-7.307
			c-3.897-3.15-6.883-6.971-8.959-11.455c-2.078-4.486-3.114-9.5-3.114-15.036v-72.281H582.963z"/>
		<path d="M766.514,750.573c-3.333,0-6.319,0.129-8.96,0.385c-2.64,0.257-4.882,0.872-6.727,1.846
			c-1.847,0.974-3.256,2.422-4.229,4.345c-0.973,1.924-1.459,4.549-1.459,7.882v3.921h79.662v22.529h-79.662v42.216h-28.531v-71.049
			c0-5.434,0.81-10.307,2.422-14.612c1.616-4.306,4.318-7.933,8.113-10.879c3.794-2.947,8.815-5.202,15.071-6.767
			c6.254-1.564,14.045-2.348,23.376-2.348h62.977v22.531H766.514z"/>
		<path d="M881.088,728.042v59.519c0,3.948,0.335,7.521,1,10.726c0.666,3.204,1.896,5.949,3.69,8.228
			c1.795,2.281,4.307,4.053,7.535,5.306c3.23,1.259,7.433,1.885,12.61,1.885c3.897,0,7.984-0.538,12.264-1.616
			c4.282-1.073,8.523-2.511,12.728-4.306c4.205-1.791,8.215-3.855,12.035-6.189c3.819-2.332,7.24-4.754,10.266-7.266v-66.285h28.449
			v105.654h-28.449v-14.455c-3.589,2.052-7.408,4.114-11.458,6.19s-8.355,3.947-12.918,5.613c-4.563,1.667-9.406,3.022-14.533,4.073
			c-5.128,1.052-10.536,1.577-16.225,1.577c-7.125,0-13.51-0.856-19.147-2.574c-5.641-1.718-10.407-4.154-14.301-7.307
			c-3.896-3.15-6.884-6.971-8.959-11.455c-2.078-4.486-3.114-9.5-3.114-15.036v-72.281H881.088z"/>
	</g>
	<g>
		<path d="M121.385,975.947l-13.507-25.942H41.202l-13.507,25.942h-9.791l51.382-98.191h10.506l51.382,98.191H121.385z
			 M74.576,886.402l-29.014,55.456h57.958L74.576,886.402z"/>
		<path d="M246.197,907.913c0,4.907-0.798,9.244-2.394,13.006c-1.597,3.765-4.109,6.933-7.539,9.506
			c-3.431,2.571-7.85,4.513-13.257,5.823c-5.408,1.311-11.923,1.967-19.545,1.967h-44.094v37.732h-8.933v-98.191h53.026
			c7.622,0,14.137,0.654,19.545,1.965c5.407,1.311,9.827,3.228,13.257,5.753c3.43,2.525,5.942,5.67,7.539,9.433
			C245.399,898.671,246.197,903.007,246.197,907.913z M237.05,907.913c0-4.669-0.774-8.433-2.325-11.291
			c-1.55-2.858-3.935-5.062-7.153-6.611c-3.219-1.548-7.296-2.584-12.231-3.108c-4.936-0.523-10.789-0.786-17.561-0.786h-38.412
			v43.736h38.412c2.622,0,5.424,0.012,8.404,0.035c2.98,0.025,5.925-0.118,8.833-0.429c2.909-0.309,5.688-0.857,8.334-1.644
			c2.646-0.785,4.983-1.988,7.01-3.608c2.027-1.619,3.648-3.739,4.864-6.36C236.441,915.227,237.05,911.915,237.05,907.913z"/>
		<path d="M270.281,975.947v-98.191h8.933v98.191H270.281z"/>
		<path d="M457.839,972.088c-3.358,1.191-6.85,2.216-10.47,3.072c-3.621,0.858-7.432,1.524-11.435,2.002
			c-4.002,0.476-8.36,0.715-13.077,0.715c-5.813,0-11.399-0.478-16.759-1.431c-5.359-0.952-10.352-2.38-14.973-4.287
			c-4.621-1.904-8.814-4.275-12.578-7.111c-3.763-2.833-6.992-6.133-9.683-9.897c-2.692-3.762-4.765-8.003-6.217-12.72
			c-1.454-4.718-2.18-9.886-2.18-15.508c0-5.621,0.726-10.792,2.18-15.508c1.453-4.717,3.525-8.956,6.217-12.721
			c2.691-3.763,5.919-7.063,9.683-9.897s7.957-5.205,12.578-7.111c4.621-1.905,9.601-3.335,14.937-4.288
			c5.335-0.952,10.935-1.43,16.795-1.43c4.717,0,9.075,0.239,13.077,0.715c4.003,0.479,7.813,1.144,11.435,2.002
			c3.62,0.856,7.111,1.869,10.47,3.036c3.359,1.17,6.754,2.467,10.183,3.896v10.719c-2.718-1.714-5.626-3.333-8.725-4.858
			c-3.099-1.524-6.448-2.859-10.048-4.003c-3.602-1.144-7.449-2.047-11.55-2.715c-4.101-0.667-8.487-1.001-13.158-1.001
			c-9.439,0-17.617,1.025-24.53,3.074c-6.915,2.049-12.623,4.942-17.13,8.682c-4.505,3.741-7.842,8.266-10.011,13.578
			c-2.17,5.313-3.254,11.256-3.254,17.831s1.084,12.505,3.254,17.794c2.168,5.288,5.506,9.804,10.011,13.543
			c4.507,3.74,10.215,6.623,17.13,8.646c6.913,2.025,15.091,3.038,24.53,3.038c4.671,0,9.094-0.333,13.266-1.001
			c4.171-0.666,8.08-1.572,11.729-2.715c3.647-1.145,7.009-2.466,10.085-3.967c3.075-1.501,5.875-3.084,8.401-4.753v10.648
			C464.593,969.588,461.198,970.897,457.839,972.088z"/>
		<path d="M494.536,975.947v-98.191h8.934v89.829h71.749v8.362H494.536z"/>
		<path d="M714.932,926.923c0,8.814-1.597,16.426-4.787,22.832c-3.189,6.409-7.57,11.697-13.141,15.865
			c-5.572,4.171-12.144,7.253-19.714,9.256c-7.57,2-15.736,3.001-24.498,3.001c-8.809,0-17.022-1.001-24.641-3.001
			c-7.619-2.003-14.237-5.085-19.855-9.256c-5.62-4.168-10.023-9.456-13.214-15.865c-3.19-6.406-4.784-14.018-4.784-22.832
			c0-5.86,0.737-11.185,2.213-15.973c1.478-4.788,3.549-9.076,6.215-12.863c2.667-3.788,5.894-7.063,9.679-9.827
			c3.785-2.763,7.998-5.062,12.641-6.896c4.644-1.834,9.629-3.191,14.963-4.073c5.333-0.882,10.927-1.323,16.784-1.323
			c8.762,0,16.928,1.002,24.498,3.002c7.57,2.002,14.142,5.087,19.714,9.256c5.57,4.168,9.951,9.456,13.141,15.864
			C713.335,910.499,714.932,918.109,714.932,926.923z M705.783,926.923c0-6.956-1.132-13.101-3.396-18.438
			c-2.265-5.335-5.614-9.826-10.047-13.471c-4.435-3.645-9.953-6.407-16.555-8.289c-6.604-1.882-14.268-2.824-22.993-2.824
			c-8.725,0-16.412,0.955-23.062,2.859c-6.651,1.906-12.218,4.682-16.698,8.325c-4.482,3.645-7.867,8.146-10.154,13.507
			c-2.29,5.359-3.434,11.471-3.434,18.331c0,6.956,1.144,13.103,3.434,18.438c2.287,5.337,5.672,9.825,10.154,13.471
			c4.48,3.646,10.047,6.408,16.698,8.29c6.649,1.883,14.337,2.823,23.062,2.823c8.726,0,16.389-0.94,22.993-2.823
			c6.602-1.882,12.12-4.645,16.555-8.29c4.433-3.646,7.782-8.134,10.047-13.471C704.651,940.025,705.783,933.879,705.783,926.923z"
			/>
		<path d="M836.313,958.474c-2.072,4.026-5.171,7.48-9.291,10.362c-4.121,2.884-9.279,5.109-15.472,6.682
			c-6.193,1.573-13.412,2.359-21.653,2.359c-8.243,0-15.461-0.786-21.653-2.359c-6.195-1.572-11.363-3.798-15.508-6.682
			c-4.145-2.882-7.255-6.336-9.327-10.362c-2.072-4.025-3.108-8.492-3.108-13.399v-67.318h8.934v68.033
			c0,3.287,0.868,6.396,2.608,9.327c1.738,2.929,4.323,5.491,7.754,7.681c3.431,2.193,7.67,3.932,12.72,5.218
			c5.051,1.286,10.911,1.93,17.581,1.93c6.621,0,12.458-0.644,17.509-1.93c5.049-1.286,9.291-3.024,12.72-5.218
			c3.431-2.189,6.015-4.752,7.754-7.681c1.739-2.932,2.609-6.04,2.609-9.327v-68.033h8.933v67.318
			C839.422,949.981,838.386,954.448,836.313,958.474z"/>
		<path d="M978.778,926.779c0,6.289-0.655,11.876-1.966,16.759c-1.311,4.885-3.156,9.137-5.538,12.756
			c-2.383,3.622-5.276,6.694-8.683,9.219c-3.407,2.526-7.195,4.551-11.363,6.075c-4.169,1.526-8.694,2.632-13.578,3.323
			c-4.885,0.69-10.018,1.036-15.4,1.036h-50.669v-98.191h50.525c8.052,0,15.531,0.785,22.44,2.357
			c6.907,1.572,12.898,4.252,17.974,8.039c5.073,3.788,9.052,8.827,11.934,15.116C977.336,909.556,978.778,917.395,978.778,926.779z
			 M969.63,926.815c0-5.34-0.523-10.062-1.572-14.163c-1.05-4.1-2.551-7.664-4.506-10.693c-1.955-3.026-4.34-5.565-7.153-7.617
			c-2.814-2.049-5.983-3.706-9.512-4.971c-3.529-1.264-7.367-2.156-11.515-2.682c-4.148-0.525-8.56-0.787-13.231-0.787h-41.626
			V967.8h41.626c7.008,0,13.421-0.63,19.238-1.896c5.817-1.264,10.812-3.456,14.983-6.58c4.172-3.123,7.428-7.319,9.764-12.589
			C968.462,941.467,969.63,934.826,969.63,926.815z"/>
	</g>
</g>
<g id="Layer_2">
	<g>
		<defs>
			<path id="SVGID_1_" d="M498.339,19.823c-186.524,0-337.743,151.218-337.743,337.756c0,186.532,151.218,337.75,337.743,337.75
				c186.532,0,337.748-151.218,337.748-337.75C836.087,171.042,684.871,19.823,498.339,19.823 M514.64,112.809
				c-0.221-12.416,12.027-22.578,26.969-20.346c12.439,2.268,22.604,14.505,17.896,29.482l-2.084,22.396
				c-2.28,12.477-14.529,22.607-26.97,20.349c-12.467-2.269-22.626-14.53-20.349-26.97L514.64,112.809z M282.904,355.291
				l-24.882-2.061c-12.447-2.253-22.605-14.504-20.339-26.973c2.258-12.439,14.505-22.599,26.97-20.335l24.885,2.065
				c12.416-0.228,22.555,12.017,20.335,26.967C307.641,349.882,295.393,360.034,282.904,355.291 M334.487,180.527
				c-7.626-9.809-5.441-27.237,6.876-32.428c9.81-7.603,27.249-5.449,34.876,4.369l7.614,9.81c7.629,9.78,5.397,24.739-6.875,32.41
				c-9.811,7.618-27.248,5.437-34.863-4.378L334.487,180.527z M561.133,499.461l-13.267,94.613
				c0.218,12.419-14.505,22.604-26.97,20.351l-99.581-13.176c-12.395,0.226-22.607-14.497-20.352-26.966l13.269-94.585
				c-40.309-31.63-63.557-83.382-59.48-135.577c13.364-87.197,99.24-148.294,186.562-124.999
				c64.906,16.262,110.622,75.075,111.735,139.648C654.19,423.309,615.363,476.156,561.133,499.461 M673.228,234.224
				c-7.611-9.811-5.43-27.211,4.39-34.868l9.777-7.603c9.795-7.624,27.232-5.435,34.849,4.345
				c7.615,9.808,5.459,27.245-4.365,34.851l-9.796,7.649C698.308,246.192,680.868,244.03,673.228,234.224 M748.484,419.188
				l-24.904-4.538c-12.419,0.22-22.558-12.024-20.304-24.471c2.282-12.453,14.503-22.611,26.971-20.338l24.887,2.04
				c12.439,2.291,22.603,14.541,20.319,26.98C773.2,411.329,760.951,421.491,748.484,419.188"/>
		</defs>
		<clipPath id="SVGID_2_">
			<use xlink:href="#SVGID_1_"  overflow="visible"/>
		</clipPath>
		<path clip-path="url(#SVGID_2_)" fill="#43A75C" stroke="#43A75C" stroke-width="1.51" d="M970.272,288.947L821.33,443.549
			l239.438,192.302L970.272,288.947z"/>
		<path clip-path="url(#SVGID_2_)" fill="#3AA157" stroke="#3AA157" stroke-width="1.51" d="M1060.768,635.851l220.585-248.863
			l-311.08-98.041L1060.768,635.851z"/>
		<path clip-path="url(#SVGID_2_)" fill="#48A35B" stroke="#48A35B" stroke-width="1.51" d="M821.33,443.549L610.172,564.21
			l450.596,71.641L821.33,443.549z"/>
		<path clip-path="url(#SVGID_2_)" fill="#68BC6E" stroke="#68BC6E" stroke-width="1.51" d="M440.494,62.711L610.172,564.21
			L821.33,443.549L440.494,62.711z"/>
		<path clip-path="url(#SVGID_2_)" fill="#50AE62" stroke="#50AE62" stroke-width="1.51" d="M1281.353,386.988L1104.128,74.02
			L970.272,288.947L1281.353,386.988z"/>
		<path clip-path="url(#SVGID_2_)" fill="#69BE70" stroke="#69BE70" stroke-width="1.51" d="M970.272,288.947L440.494,62.711
			L821.33,443.549L970.272,288.947z"/>
		<path clip-path="url(#SVGID_2_)" fill="#2A8D48" stroke="#2A8D48" stroke-width="1.51" d="M1060.768,635.851l307.311,88.61
			l-86.726-337.473L1060.768,635.851z"/>
		<path clip-path="url(#SVGID_2_)" fill="#208245" stroke="#208245" stroke-width="1.51" d="M1155.036,943.163l213.042-218.702
			l-307.311-88.61L1155.036,943.163z"/>
		<path clip-path="url(#SVGID_2_)" fill="#2B874A" stroke="#2B874A" stroke-width="1.51" d="M695.014,954.475l460.022-11.312
			l-94.269-307.312L695.014,954.475z"/>
		<path clip-path="url(#SVGID_2_)" fill="#429856" stroke="#429856" stroke-width="1.51" d="M610.172,564.21l84.842,390.265
			l365.754-318.624L610.172,564.21z"/>
		<path clip-path="url(#SVGID_2_)" fill="#70C172" stroke="#70C172" stroke-width="1.51" d="M1104.128,74.02L772.311-116.397
			l197.962,405.344L1104.128,74.02z"/>
		<path clip-path="url(#SVGID_2_)" fill="#81CA7C" stroke="#81CA7C" stroke-width="1.51" d="M772.311-116.397L440.494,62.711
			l529.778,226.235L772.311-116.397z"/>
		<path clip-path="url(#SVGID_2_)" fill="#59A15F" stroke="#59A15F" stroke-width="1.51" d="M610.172,564.21l-367.64,90.499
			l452.481,299.766L610.172,564.21z"/>
		<path clip-path="url(#SVGID_2_)" fill="#8ACB7C" stroke="#8ACB7C" stroke-width="1.51" d="M1104.128,74.02l41.483-524.122
			L772.311-116.397L1104.128,74.02z"/>
		<path clip-path="url(#SVGID_2_)" fill="#57AB62" stroke="#57AB62" stroke-width="1.51" d="M1281.353,386.988l196.076-420.432
			L1104.128,74.02L1281.353,386.988z"/>
		<path clip-path="url(#SVGID_2_)" fill="#429956" stroke="#429956" stroke-width="1.51" d="M1863.922,339.852L1477.429-33.444
			l-196.076,420.432L1863.922,339.852z"/>
		<path clip-path="url(#SVGID_2_)" fill="#208041" stroke="#208041" stroke-width="1.51" d="M1368.078,724.461l318.621-45.242
			l-405.347-292.231L1368.078,724.461z"/>
		<path clip-path="url(#SVGID_2_)" fill="#0D6C39" stroke="#0D6C39" stroke-width="1.51" d="M1449.145,1154.321l237.555-475.103
			l-318.621,45.242L1449.145,1154.321z"/>
		<path clip-path="url(#SVGID_2_)" fill="#79C475" stroke="#79C475" stroke-width="1.51" d="M440.494,62.711L233.106,407.728
			L610.172,564.21L440.494,62.711z"/>
		<path clip-path="url(#SVGID_2_)" fill="#6FB56B" stroke="#6FB56B" stroke-width="1.51" d="M233.106,407.728l9.426,246.981
			l367.64-90.499L233.106,407.728z"/>
		<path clip-path="url(#SVGID_2_)" fill="#156D3A" stroke="#156D3A" stroke-width="1.51" d="M1155.036,943.163l294.108,211.158
			l-81.066-429.86L1155.036,943.163z"/>
		<path clip-path="url(#SVGID_2_)" fill="#1B6E3D" stroke="#1B6E3D" stroke-width="1.51" d="M949.537,1307.03l499.607-152.709
			l-294.108-211.158L949.537,1307.03z"/>
		<path clip-path="url(#SVGID_2_)" fill="#73B46B" stroke="#73B46B" stroke-width="1.51" d="M1477.429-33.444l-109.351-250.748
			L1104.128,74.02L1477.429-33.444z"/>
		<path clip-path="url(#SVGID_2_)" fill="#2B7A46" stroke="#2B7A46" stroke-width="1.51" d="M695.014,954.475l254.523,352.556
			l205.499-363.867L695.014,954.475z"/>
		<path clip-path="url(#SVGID_2_)" fill="#3B814D" stroke="#3B814D" stroke-width="1.51" d="M572.467,1414.493l377.07-107.463
			L695.014,954.475L572.467,1414.493z"/>
		<path clip-path="url(#SVGID_2_)" fill="#238546" stroke="#238546" stroke-width="1.51" d="M1686.699,679.219l177.223-339.367
			l-582.569,47.136L1686.699,679.219z"/>
		<path clip-path="url(#SVGID_2_)" fill="#79B06C" stroke="#79B06C" stroke-width="1.51" d="M1477.429-33.444l271.486-277.145
			l-380.837,26.397L1477.429-33.444z"/>
		<path clip-path="url(#SVGID_2_)" fill="#1B6E3D" stroke="#1B6E3D" stroke-width="1.51" d="M2173.11,279.525l-309.188,60.327
			l367.635,471.334L2173.11,279.525z"/>
		<path clip-path="url(#SVGID_2_)" fill="#95D183" stroke="#95D183" stroke-width="1.51" d="M119.984-18.36l-11.31,427.971
			l124.433-1.884L119.984-18.36z"/>
		<path clip-path="url(#SVGID_2_)" fill="#A2D88A" stroke="#A2D88A" stroke-width="1.51" d="M772.311-116.397l-86.724-246.979
			L440.494,62.711L772.311-116.397z"/>
		<path clip-path="url(#SVGID_2_)" fill="#A2D689" stroke="#A2D689" stroke-width="1.51" d="M1145.611-450.102l-460.024,86.725
			l86.724,246.979L1145.611-450.102z"/>
		<path clip-path="url(#SVGID_2_)" fill="#7EBE73" stroke="#7EBE73" stroke-width="1.51" d="M233.106,407.728l-124.433,1.884
			l133.858,245.098L233.106,407.728z"/>
		<path clip-path="url(#SVGID_2_)" fill="#9CD587" stroke="#9CD587" stroke-width="1.51" d="M119.984-18.36l113.123,426.087
			L440.494,62.711L119.984-18.36z"/>
		<path clip-path="url(#SVGID_2_)" fill="#87C276" stroke="#87C276" stroke-width="1.51" d="M1368.078-284.192l-222.467-165.91
			L1104.128,74.02L1368.078-284.192z"/>
		<path clip-path="url(#SVGID_2_)" fill="#509A5B" stroke="#509A5B" stroke-width="1.51" d="M1863.922,339.852l-32.047-390.259
			l-354.446,16.963L1863.922,339.852z"/>
		<path clip-path="url(#SVGID_2_)" fill="#95C57F" stroke="#95C57F" stroke-width="1.51" d="M1368.078-284.192l-81.071-309.198
			l-141.396,143.288L1368.078-284.192z"/>
		<path clip-path="url(#SVGID_2_)" fill="#B7E292" stroke="#B7E292" stroke-width="1.51" d="M368.849-367.149L119.984-18.36
			l320.51,81.071L368.849-367.149z"/>
		<path clip-path="url(#SVGID_2_)" fill="#5B965B" stroke="#5B965B" stroke-width="1.51" d="M242.532,654.709l-11.312,495.84
			l463.793-196.074L242.532,654.709z"/>
		<path clip-path="url(#SVGID_2_)" fill="#6EA566" stroke="#6EA566" stroke-width="1.51" d="M-32.727,673.556l263.947,476.993
			l11.312-495.84L-32.727,673.556z"/>
		<path clip-path="url(#SVGID_2_)" fill="#4F8955" stroke="#4F8955" stroke-width="1.51" d="M231.221,1150.549l341.246,263.944
			l122.547-460.019L231.221,1150.549z"/>
		<path clip-path="url(#SVGID_2_)" fill="#B5E092" stroke="#B5E092" stroke-width="1.51" d="M685.587-363.376l-316.738-3.772
			l71.646,429.86L685.587-363.376z"/>
		<path clip-path="url(#SVGID_2_)" fill="#C3E69D" stroke="#C3E69D" stroke-width="1.51" d="M642.224-691.426L368.849-367.149
			l316.738,3.772L642.224-691.426z"/>
		<path clip-path="url(#SVGID_2_)" fill="#7EB870" stroke="#7EB870" stroke-width="1.51" d="M108.674,409.611l-141.4,263.944
			l275.259-18.847L108.674,409.611z"/>
		<path clip-path="url(#SVGID_2_)" fill="#8CC279" stroke="#8CC279" stroke-width="1.51" d="M-275.935,464.289l243.208,209.267
			l141.4-263.944L-275.935,464.289z"/>
		<path clip-path="url(#SVGID_2_)" fill="#6BA666" stroke="#6BA666" stroke-width="1.51" d="M1831.875-50.407l-82.96-260.182
			L1477.429-33.444L1831.875-50.407z"/>
		<path clip-path="url(#SVGID_2_)" fill="#035B32" stroke="#035B32" stroke-width="1.51" d="M1449.145,1154.321l414.777-30.169
			l-177.223-444.934L1449.145,1154.321z"/>
		<path clip-path="url(#SVGID_2_)" fill="#005630" stroke="#005630" stroke-width="1.51" d="M1854.492,1374.909l9.43-250.757
			l-414.777,30.169L1854.492,1374.909z"/>
		<path clip-path="url(#SVGID_2_)" fill="#17693A" stroke="#17693A" stroke-width="1.51" d="M1407.673,1523.84l41.472-369.519
			L949.537,1307.03L1407.673,1523.84z"/>
		<path clip-path="url(#SVGID_2_)" fill="#91BD80" stroke="#91BD80" stroke-width="1.51" d="M1660.306-693.311l-373.299,99.921
			l81.071,309.198L1660.306-693.311z"/>
		<path clip-path="url(#SVGID_2_)" fill="#B0DC96" stroke="#B0DC96" stroke-width="1.51" d="M1145.611-450.102L642.224-691.426
			l43.363,328.049L1145.611-450.102z"/>
		<path clip-path="url(#SVGID_2_)" fill="#719F65" stroke="#719F65" stroke-width="1.51" d="M1831.875-50.407L2046.794-321.9
			l-297.879,11.312L1831.875-50.407z"/>
		<path clip-path="url(#SVGID_2_)" fill="#488D55" stroke="#488D55" stroke-width="1.51" d="M1863.922,339.852L2024.171,70.25
			L1831.875-50.407L1863.922,339.852z"/>
		<path clip-path="url(#SVGID_2_)" fill="#37814C" stroke="#37814C" stroke-width="1.51" d="M2173.11,279.525L2024.171,70.25
			l-160.249,269.602L2173.11,279.525z"/>
		<path clip-path="url(#SVGID_2_)" fill="#277845" stroke="#277845" stroke-width="1.51" d="M572.467,1414.493l835.206,109.347
			l-458.136-216.81L572.467,1414.493z"/>
		<path clip-path="url(#SVGID_2_)" fill="#377F4B" stroke="#377F4B" stroke-width="1.51" d="M572.467,1414.493l-162.138,47.134
			l997.344,62.213L572.467,1414.493z"/>
		<path clip-path="url(#SVGID_2_)" fill="#568C58" stroke="#568C58" stroke-width="1.51" d="M231.221,1150.549l179.108,311.078
			l162.138-47.134L231.221,1150.549z"/>
		<path clip-path="url(#SVGID_2_)" fill="#116A38" stroke="#116A38" stroke-width="1.51" d="M2231.557,811.187l-367.635-471.334
			l-177.223,339.367L2231.557,811.187z"/>
		<path clip-path="url(#SVGID_2_)" fill="#A9D79D" stroke="#A9D79D" stroke-width="1.51" d="M1107.899-744.216l-465.676,52.79
			l503.388,241.324L1107.899-744.216z"/>
		<path clip-path="url(#SVGID_2_)" fill="#9DCC91" stroke="#9DCC91" stroke-width="1.51" d="M1287.007-593.39l-179.107-150.826
			l37.712,294.114L1287.007-593.39z"/>
		<path clip-path="url(#SVGID_2_)" fill="#9CC996" stroke="#9CC996" stroke-width="1.51" d="M1341.683-1164.644l-233.783,420.428
			l179.107,150.826L1341.683-1164.644z"/>
		<path clip-path="url(#SVGID_2_)" fill="#005730" stroke="#005730" stroke-width="1.51" d="M1863.922,1124.152l367.635-312.966
			l-544.857-131.968L1863.922,1124.152z"/>
		<path clip-path="url(#SVGID_2_)" fill="#075C32" stroke="#075C32" stroke-width="1.51" d="M1407.673,1523.84l446.819-148.931
			l-405.348-220.588L1407.673,1523.84z"/>
		<path clip-path="url(#SVGID_2_)" fill="#9ED486" stroke="#9ED486" stroke-width="1.51" d="M119.984-18.36l-395.919,482.649
			l384.609-54.678L119.984-18.36z"/>
		<path clip-path="url(#SVGID_2_)" fill="#6F9762" stroke="#6F9762" stroke-width="1.51" d="M-32.727,673.556l-35.819,490.187
			l299.766-13.193L-32.727,673.556z"/>
		<path clip-path="url(#SVGID_2_)" fill="#65925E" stroke="#65925E" stroke-width="1.51" d="M231.221,1150.549l-339.358,184.757
			l518.466,126.321L231.221,1150.549z"/>
		<path clip-path="url(#SVGID_2_)" fill="#B4DF95" stroke="#B4DF95" stroke-width="1.51" d="M-490.863,68.367l214.928,395.922
			L119.984-18.36L-490.863,68.367z"/>
		<path clip-path="url(#SVGID_2_)" fill="#7EA96E" stroke="#7EA96E" stroke-width="1.51" d="M-398.482,694.294l329.937,469.448
			l35.819-490.187L-398.482,694.294z"/>
		<path clip-path="url(#SVGID_2_)" fill="#00472A" stroke="#00472A" stroke-width="1.51" d="M2161.808,1039.311l69.749-228.124
			l-367.635,312.966L2161.808,1039.311z"/>
		<path clip-path="url(#SVGID_2_)" fill="#00492B" stroke="#00492B" stroke-width="1.51" d="M1854.492,1374.909l307.315-335.599
			l-297.886,84.842L1854.492,1374.909z"/>
		<path clip-path="url(#SVGID_2_)" fill="#88B575" stroke="#88B575" stroke-width="1.51" d="M1748.915-310.589l-88.609-382.722
			l-292.228,409.119L1748.915-310.589z"/>
		<path clip-path="url(#SVGID_2_)" fill="#62955D" stroke="#62955D" stroke-width="1.51" d="M2024.171,70.25l22.623-392.151
			L1831.875-50.407L2024.171,70.25z"/>
		<path clip-path="url(#SVGID_2_)" fill="#5E8F5B" stroke="#5E8F5B" stroke-width="1.51" d="M2423.858,0.49L2046.794-321.9
			L2024.171,70.25L2423.858,0.49z"/>
		<path clip-path="url(#SVGID_2_)" fill="#82AA71" stroke="#82AA71" stroke-width="1.51" d="M2046.794-321.9l-386.488-371.41
			l88.609,382.722L2046.794-321.9z"/>
		<path clip-path="url(#SVGID_2_)" fill="#D1EC9E" stroke="#D1EC9E" stroke-width="1.51" d="M368.849-367.149l-478.874,35.821
			L119.984-18.36L368.849-367.149z"/>
		<path clip-path="url(#SVGID_2_)" fill="#CDEAAE" stroke="#CDEAAE" stroke-width="1.51" d="M642.224-691.426l-279.027-49.016
			l5.652,373.293L642.224-691.426z"/>
		<path clip-path="url(#SVGID_2_)" fill="#C9E8B3" stroke="#C9E8B3" stroke-width="1.51" d="M617.712-994.964L363.197-740.442
			l279.027,49.016L617.712-994.964z"/>
		<path clip-path="url(#SVGID_2_)" fill="#E3F4AB" stroke="#E3F4AB" stroke-width="1.51" d="M-2.561-676.343l-107.464,345.015
			l478.874-35.821L-2.561-676.343z"/>
		<path clip-path="url(#SVGID_2_)" fill="#6F9663" stroke="#6F9663" stroke-width="1.51" d="M-68.545,1163.742l-39.592,171.563
			l339.358-184.757L-68.545,1163.742z"/>
		<path clip-path="url(#SVGID_2_)" fill="#799A69" stroke="#799A69" stroke-width="1.51" d="M-481.435,994.064l373.297,341.241
			l39.592-171.563L-481.435,994.064z"/>
		<path clip-path="url(#SVGID_2_)" fill="#8DBD78" stroke="#8DBD78" stroke-width="1.51" d="M-275.935,464.289l-122.547,230.005
			l365.755-20.738L-275.935,464.289z"/>
		<path clip-path="url(#SVGID_2_)" fill="#92BE82" stroke="#92BE82" stroke-width="1.51" d="M-645.461,718.808l246.979-24.514
			l122.547-230.005L-645.461,718.808z"/>
		<path clip-path="url(#SVGID_2_)" fill="#00502D" stroke="#00502D" stroke-width="1.51" d="M2520.018,1171.29l-92.384-509.046
			l-196.077,148.942L2520.018,1171.29z"/>
		<path clip-path="url(#SVGID_2_)" fill="#126436" stroke="#126436" stroke-width="1.51" d="M2231.557,811.187l196.077-148.942
			L2173.11,279.525L2231.557,811.187z"/>
		<path clip-path="url(#SVGID_2_)" fill="#458552" stroke="#458552" stroke-width="1.51" d="M2173.11,279.525L2423.858,0.49
			L2024.171,70.25L2173.11,279.525z"/>
		<path clip-path="url(#SVGID_2_)" fill="#367E4B" stroke="#367E4B" stroke-width="1.51" d="M2565.265,430.349L2423.858,0.49
			L2173.11,279.525L2565.265,430.349z"/>
		<path clip-path="url(#SVGID_2_)" fill="#82A378" stroke="#82A378" stroke-width="1.51" d="M2046.794-321.9l118.777-354.442
			l-505.266-16.968L2046.794-321.9z"/>
		<path clip-path="url(#SVGID_2_)" fill="#ACDAA4" stroke="#ACDAA4" stroke-width="1.51" d="M1047.571-1059.067L642.224-691.426
			l465.676-52.79L1047.571-1059.067z"/>
		<path clip-path="url(#SVGID_2_)" fill="#B8E0AB" stroke="#B8E0AB" stroke-width="1.51" d="M1047.571-1059.067l-429.859,64.103
			l24.512,303.538L1047.571-1059.067z"/>
		<path clip-path="url(#SVGID_2_)" fill="#DCF1B4" stroke="#DCF1B4" stroke-width="1.51" d="M363.197-740.442L-2.561-676.343
			l371.41,309.194L363.197-740.442z"/>
		<path clip-path="url(#SVGID_2_)" fill="#E1F3BE" stroke="#E1F3BE" stroke-width="1.51" d="M219.909-1006.278L-2.561-676.343
			l365.758-64.099L219.909-1006.278z"/>
		<path clip-path="url(#SVGID_2_)" fill="#A0CE9A" stroke="#A0CE9A" stroke-width="1.51" d="M1341.683-1164.644l-294.111,105.577
			l60.328,314.851L1341.683-1164.644z"/>
		<path clip-path="url(#SVGID_2_)" fill="#DBF1A5" stroke="#DBF1A5" stroke-width="1.51" d="M-341.923-295.508L119.984-18.36
			l-230.009-312.968L-341.923-295.508z"/>
		<path clip-path="url(#SVGID_2_)" fill="#D2EDA2" stroke="#D2EDA2" stroke-width="1.51" d="M-341.923-295.508l-148.94,363.875
			L119.984-18.36L-341.923-295.508z"/>
		<path clip-path="url(#SVGID_2_)" fill="#F1FAB5" stroke="#F1FAB5" stroke-width="1.51" d="M-358.891-625.44l16.968,329.933
			l231.898-35.82L-358.891-625.44z"/>
		<path clip-path="url(#SVGID_2_)" fill="#004529" stroke="#004529" stroke-width="1.51" d="M1854.492,1374.909l269.607,152.709
			l37.708-488.308L1854.492,1374.909z"/>
		<path clip-path="url(#SVGID_2_)" fill="#004629" stroke="#004629" stroke-width="1.51" d="M2161.808,1039.311l358.21,131.979
			l-288.461-360.104L2161.808,1039.311z"/>
		<path clip-path="url(#SVGID_2_)" fill="#00522E" stroke="#00522E" stroke-width="1.51" d="M1407.673,1523.84l716.427,3.778
			l-269.607-152.709L1407.673,1523.84z"/>
		<path clip-path="url(#SVGID_2_)" fill="#045931" stroke="#045931" stroke-width="1.51" d="M2520.018,1171.29l45.247-740.941
			l-137.631,231.896L2520.018,1171.29z"/>
		<path clip-path="url(#SVGID_2_)" fill="#1C6F3E" stroke="#1C6F3E" stroke-width="1.51" d="M2427.634,662.244l137.631-231.896
			L2173.11,279.525L2427.634,662.244z"/>
		<path clip-path="url(#SVGID_2_)" fill="#80A36F" stroke="#80A36F" stroke-width="1.51" d="M-398.482,694.294l-82.953,299.771
			l412.89,169.678L-398.482,694.294z"/>
		<path clip-path="url(#SVGID_2_)" fill="#89B180" stroke="#89B180" stroke-width="1.51" d="M-645.461,718.808l164.026,275.257
			l82.953-299.771L-645.461,718.808z"/>
		<path clip-path="url(#SVGID_2_)" fill="#4E8854" stroke="#4E8854" stroke-width="1.51" d="M2565.265,430.349l-133.861-693.806
			L2423.858,0.49L2565.265,430.349z"/>
		<path clip-path="url(#SVGID_2_)" fill="#699460" stroke="#699460" stroke-width="1.51" d="M2423.858,0.49l7.545-263.947
			L2046.794-321.9L2423.858,0.49z"/>
		<path clip-path="url(#SVGID_2_)" fill="#94BE8F" stroke="#94BE8F" stroke-width="1.51" d="M1660.306-693.311l-318.623-471.333
			l-54.676,571.254L1660.306-693.311z"/>
		<path clip-path="url(#SVGID_2_)" fill="#7F9D72" stroke="#7F9D72" stroke-width="1.51" d="M2359.763-589.619l-194.191-86.724
			L2046.794-321.9L2359.763-589.619z"/>
		<path clip-path="url(#SVGID_2_)" fill="#709663" stroke="#709663" stroke-width="1.51" d="M-108.138,1335.306l-173.452,152.718
			l691.918-26.396L-108.138,1335.306z"/>
		<path clip-path="url(#SVGID_2_)" fill="#4E8854" stroke="#4E8854" stroke-width="1.51" d="M410.329,1461.627l-691.918,26.396
			l1689.263,35.816L410.329,1461.627z"/>
		<path clip-path="url(#SVGID_2_)" fill="#7C9C6C" stroke="#7C9C6C" stroke-width="1.51" d="M-481.435,994.064l199.845,493.959
			l173.452-152.718L-481.435,994.064z"/>
		<path clip-path="url(#SVGID_2_)" fill="#7F9D75" stroke="#7F9D75" stroke-width="1.51" d="M-481.435,994.064l-158.371,454.366
			l358.216,39.593L-481.435,994.064z"/>
		<path clip-path="url(#SVGID_2_)" fill="#9BC892" stroke="#9BC892" stroke-width="1.51" d="M-832.11,341.74l186.649,377.068
			l369.526-254.519L-832.11,341.74z"/>
		<path clip-path="url(#SVGID_2_)" fill="#F1FABB" stroke="#F1FABB" stroke-width="1.51" d="M-2.561-676.343l-356.33,50.902
			l248.866,294.113L-2.561-676.343z"/>
		<path clip-path="url(#SVGID_2_)" fill="#D3EDB8" stroke="#D3EDB8" stroke-width="1.51" d="M617.712-994.964l-397.803-11.314
			l143.288,265.836L617.712-994.964z"/>
		<path clip-path="url(#SVGID_2_)" fill="#DDF1BC" stroke="#DDF1BC" stroke-width="1.51" d="M-68.545-1185.383l288.454,179.105
			l397.803,11.314L-68.545-1185.383z"/>
		<path clip-path="url(#SVGID_2_)" fill="#C9E8B3" stroke="#C9E8B3" stroke-width="1.51" d="M1047.571-1059.067L-68.545-1185.383
			l686.257,190.419L1047.571-1059.067z"/>
		<path clip-path="url(#SVGID_2_)" fill="#8DB68B" stroke="#8DB68B" stroke-width="1.51" d="M1877.121-953.486l-535.438-211.157
			l318.623,471.333L1877.121-953.486z"/>
		<path clip-path="url(#SVGID_2_)" fill="#85A784" stroke="#85A784" stroke-width="1.51" d="M2165.571-676.343l-288.45-277.144
			l-216.815,260.176L2165.571-676.343z"/>
		<path clip-path="url(#SVGID_2_)" fill="#004529" stroke="#004529" stroke-width="1.51" d="M2512.479,1273.096l7.539-101.806
			l-358.21-131.979L2512.479,1273.096z"/>
		<path clip-path="url(#SVGID_2_)" fill="#004529" stroke="#004529" stroke-width="1.51" d="M2124.1,1527.618l388.379-254.522
			l-350.671-233.785L2124.1,1527.618z"/>
		<path clip-path="url(#SVGID_2_)" fill="#819E81" stroke="#819E81" stroke-width="1.51" d="M2165.571-676.343l-24.503-375.182
			l-263.947,98.039L2165.571-676.343z"/>
		<path clip-path="url(#SVGID_2_)" fill="#789A69" stroke="#789A69" stroke-width="1.51" d="M2431.403-263.458l-71.641-326.161
			L2046.794-321.9L2431.403-263.458z"/>
		<path clip-path="url(#SVGID_2_)" fill="#86A881" stroke="#86A881" stroke-width="1.51" d="M-645.461,718.808l-13.197,260.172
			l177.223,15.085L-645.461,718.808z"/>
		<path clip-path="url(#SVGID_2_)" fill="#F8FDCD" stroke="#F8FDCD" stroke-width="1.51" d="M-419.221-955.373l60.33,329.932
			l356.33-50.902L-419.221-955.373z"/>
		<path clip-path="url(#SVGID_2_)" fill="#BDE3AE" stroke="#BDE3AE" stroke-width="1.51" d="M-817.027,79.677L-832.11,341.74
			l341.247-273.373L-817.027,79.677z"/>
		<path clip-path="url(#SVGID_2_)" fill="#AEDA9D" stroke="#AEDA9D" stroke-width="1.51" d="M-490.863,68.367L-832.11,341.74
			l556.175,122.549L-490.863,68.367z"/>
		<path clip-path="url(#SVGID_2_)" fill="#DBF0BC" stroke="#DBF0BC" stroke-width="1.51" d="M-817.027,79.677l326.164-11.31
			l-177.22-488.304L-817.027,79.677z"/>
		<path clip-path="url(#SVGID_2_)" fill="#8BB38A" stroke="#8BB38A" stroke-width="1.51" d="M-645.461,718.808l-394.036-50.908
			l380.839,311.08L-645.461,718.808z"/>
		<path clip-path="url(#SVGID_2_)" fill="#E7F5B7" stroke="#E7F5B7" stroke-width="1.51" d="M-668.083-419.937l177.22,488.304
			l148.94-363.875L-668.083-419.937z"/>
		<path clip-path="url(#SVGID_2_)" fill="#F7FCC1" stroke="#F7FCC1" stroke-width="1.51" d="M-358.891-625.44l-309.192,205.504
			l326.16,124.429L-358.891-625.44z"/>
		<path clip-path="url(#SVGID_2_)" fill="#819E81" stroke="#819E81" stroke-width="1.51" d="M2416.319-998.737l-275.251-52.788
			l24.503,375.182L2416.319-998.737z"/>
		<path clip-path="url(#SVGID_2_)" fill="#88AD88" stroke="#88AD88" stroke-width="1.51" d="M1877.121-953.486l263.947-98.039
			l-799.386-113.119L1877.121-953.486z"/>
		<path clip-path="url(#SVGID_2_)" fill="#819E81" stroke="#819E81" stroke-width="1.51" d="M-1139.421,1060.05l499.615,388.381
			l-18.853-469.451L-1139.421,1060.05z"/>
		<path clip-path="url(#SVGID_2_)" fill="#819D7D" stroke="#819D7D" stroke-width="1.51" d="M-658.658,978.979l18.853,469.451
			l158.371-454.366L-658.658,978.979z"/>
		<path clip-path="url(#SVGID_2_)" fill="#FCFDD3" stroke="#FCFDD3" stroke-width="1.51" d="M-358.891-625.44l-245.093-47.131
			l-64.099,252.635L-358.891-625.44z"/>
		<path clip-path="url(#SVGID_2_)" fill="#BCE2AE" stroke="#BCE2AE" stroke-width="1.51" d="M-1005.56,113.614L-832.11,341.74
			l15.083-262.062L-1005.56,113.614z"/>
		<path clip-path="url(#SVGID_2_)" fill="#FDFED8" stroke="#FDFED8" stroke-width="1.51" d="M-419.221-955.373l-184.764,282.801
			l245.093,47.131L-419.221-955.373z"/>
		<path clip-path="url(#SVGID_2_)" fill="#EAF7C3" stroke="#EAF7C3" stroke-width="1.51" d="M219.909-1006.278l-288.454-179.105
			l65.984,509.041L219.909-1006.278z"/>
		<path clip-path="url(#SVGID_2_)" fill="#B7E0AA" stroke="#B7E0AA" stroke-width="1.51" d="M1341.683-1164.644l-1410.228-20.74
			l1116.117,126.316L1341.683-1164.644z"/>
		<path clip-path="url(#SVGID_2_)" fill="#F4FBCA" stroke="#F4FBCA" stroke-width="1.51" d="M-68.545-1185.383l-350.675,230.011
			l416.66,279.03L-68.545-1185.383z"/>
		<path clip-path="url(#SVGID_2_)" fill="#97C392" stroke="#97C392" stroke-width="1.51" d="M-832.11,341.74l-207.387,326.16
			l394.036,50.908L-832.11,341.74z"/>
		<path clip-path="url(#SVGID_2_)" fill="#B1DCA6" stroke="#B1DCA6" stroke-width="1.51" d="M-1005.56,113.614l-18.852,267.714
			l192.301-39.588L-1005.56,113.614z"/>
		<path clip-path="url(#SVGID_2_)" fill="#D8EFBA" stroke="#D8EFBA" stroke-width="1.51" d="M-1005.56,113.614l188.532-33.937
			l-165.909-452.482L-1005.56,113.614z"/>
		<path clip-path="url(#SVGID_2_)" fill="#EAF7C3" stroke="#EAF7C3" stroke-width="1.51" d="M-982.936-372.805l165.909,452.482
			l148.944-499.614L-982.936-372.805z"/>
		<path clip-path="url(#SVGID_2_)" fill="#819E81" stroke="#819E81" stroke-width="1.51" d="M2359.763-589.619l56.557-409.119
			l-250.748,322.395L2359.763-589.619z"/>
		<path clip-path="url(#SVGID_2_)" fill="#809D7B" stroke="#809D7B" stroke-width="1.51" d="M2431.403-263.458l-15.084-735.28
			l-56.557,409.119L2431.403-263.458z"/>
		<path clip-path="url(#SVGID_2_)" fill="#719763" stroke="#719763" stroke-width="1.51" d="M2565.265,430.349L2416.319-998.737
			l15.084,735.28L2565.265,430.349z"/>
		<path clip-path="url(#SVGID_2_)" fill="#9FCD9A" stroke="#9FCD9A" stroke-width="1.51" d="M-1024.412,381.328l-15.086,286.572
			l207.387-326.16L-1024.412,381.328z"/>
		<path clip-path="url(#SVGID_2_)" fill="#FEFEDB" stroke="#FEFEDB" stroke-width="1.51" d="M-1016.871-657.489l348.788,237.553
			l64.099-252.635L-1016.871-657.489z"/>
		<path clip-path="url(#SVGID_2_)" fill="#FCFDD1" stroke="#FCFDD1" stroke-width="1.51" d="M-1016.871-657.489l33.935,284.685
			l314.853-47.132L-1016.871-657.489z"/>
		<path clip-path="url(#SVGID_2_)" fill="#9BC896" stroke="#9BC896" stroke-width="1.51" d="M-1005.56,113.614l-133.861,946.436
			l115.009-678.722L-1005.56,113.614z"/>
		<path clip-path="url(#SVGID_2_)" fill="#86A986" stroke="#86A986" stroke-width="1.51" d="M-1039.498,667.899l-99.923,392.15
			l480.763-81.07L-1039.498,667.899z"/>
		<path clip-path="url(#SVGID_2_)" fill="#90B98D" stroke="#90B98D" stroke-width="1.51" d="M-1024.412,381.328l-115.009,678.722
			l99.923-392.15L-1024.412,381.328z"/>
		<path clip-path="url(#SVGID_2_)" fill="#BDE3AE" stroke="#BDE3AE" stroke-width="1.51" d="M-1016.871-657.489l-122.55,1717.539
			l133.861-946.436L-1016.871-657.489z"/>
		<path clip-path="url(#SVGID_2_)" fill="#FEFEDE" stroke="#FEFEDE" stroke-width="1.51" d="M-419.221-955.373l-205.501-179.105
			l20.737,461.906L-419.221-955.373z"/>
		<path clip-path="url(#SVGID_2_)" fill="#FCFDD2" stroke="#FCFDD2" stroke-width="1.51" d="M-68.545-1185.383l-556.176,50.905
			l205.501,179.105L-68.545-1185.383z"/>
		<path clip-path="url(#SVGID_2_)" fill="#F0F9C6" stroke="#F0F9C6" stroke-width="1.51" d="M-982.936-372.805l-33.935-284.685
			l11.312,771.103L-982.936-372.805z"/>
		<path clip-path="url(#SVGID_2_)" fill="#FFFFE5" stroke="#FFFFE5" stroke-width="1.51" d="M-986.705-1036.441l-30.167,378.952
			l412.887-15.083L-986.705-1036.441z"/>
		<path clip-path="url(#SVGID_2_)" fill="#819E81" stroke="#819E81" stroke-width="1.51" d="M-1139.421,1060.05l20.74,412.896
			l478.875-24.515L-1139.421,1060.05z"/>
		<path clip-path="url(#SVGID_2_)" fill="#819E81" stroke="#819E81" stroke-width="1.51" d="M-639.806,1448.431l-478.875,24.515
			l837.091,15.078L-639.806,1448.431z"/>
		<path clip-path="url(#SVGID_2_)" fill="#709663" stroke="#709663" stroke-width="1.51" d="M-281.59,1488.023l-837.091-15.078
			l2526.354,50.895L-281.59,1488.023z"/>
		<path clip-path="url(#SVGID_2_)" fill="#FFFFE5" stroke="#FFFFE5" stroke-width="1.51" d="M-624.722-1134.478l-361.983,98.037
			l382.72,363.869L-624.722-1134.478z"/>
	</g>
	<g>
		<path d="M119.011,449.68c2.996,3.76,4.793,7.519,4.943,14.748c0,8.098-3.595,15.906-7.79,15.906c-2.546,0-4.644-2.603-6.441-4.916
			l-61.566-78.952c-3.295-4.049-5.542-7.23-5.542-15.617c-0.15-8.098,2.247-11.568,5.542-15.617l61.716-79.241
			c1.798-2.313,3.895-4.338,6.142-4.338c4.344,0,7.79,7.519,7.939,15.617c0,7.519-2.397,11.568-5.243,15.328L65.384,380.85
			L119.011,449.68z"/>
	</g>
	<g>
		<path d="M924.462,380.85l-53.327-68.251c-2.847-3.76-5.243-7.809-5.243-15.328c0.15-8.098,3.596-15.617,7.939-15.617
			c2.247,0,4.344,2.024,6.142,4.338l61.716,79.241c3.295,4.049,5.692,7.519,5.543,15.617c0,8.387-2.248,11.568-5.543,15.617
			l-61.566,78.952c-1.797,2.313-3.895,4.916-6.441,4.916c-4.193,0-7.789-7.809-7.789-15.906c0.15-7.229,1.947-10.988,4.943-14.748
			L924.462,380.85z"/>
	</g>
</g>
</svg>
